{
  "accessors": [
    {
      "bufferView": 2,
      "componentType": 5126,
      "count": 4522,
      "max": [
        17.39238739013672,
        10.38487434387207,
        17.268028259277344
      ],
      "min": [
        -17.972320556640625,
        -10.38487434387207,
        -18.53858184814453
      ],
      "type": "VEC3"
    },
    {
      "bufferView": 2,
      "byteOffset": 54264,
      "componentType": 5126,
      "count": 4522,
      "max": [
        1.0,
        1.0,
        1.0
      ],
      "min": [
        -1.0,
        -1.0,
        -1.0
      ],
      "type": "VEC3"
    },
    {
      "bufferView": 1,
      "componentType": 5126,
      "count": 4522,
      "max": [
        1.0,
        -0.0
      ],
      "min": [
        0.0,
        -1.0
      ],
      "type": "VEC2"
    },
    {
      "bufferView": 0,
      "componentType": 5125,
      "count": 8640,
      "type": "SCALAR"
    },
    {
      "bufferView": 2,
      "byteOffset": 108528,
      "componentType": 5126,
      "count": 228,
      "max": [
        19.379446029663086,
        10.738848686218262,
        17.573291778564453
      ],
      "min": [
        -18.47716522216797,
        8.418614387512207,
        -15.233108520507813
      ],
      "type": "VEC3"
    },
    {
      "bufferView": 2,
      "byteOffset": 111264,
      "componentType": 5126,
      "count": 228,
      "max": [
        0.0,
        1.0,
        0.0
      ],
      "min": [
        0.0,
        -1.0,
        0.0
      ],
      "type": "VEC3"
    },
    {
      "bufferView": 1,
      "byteOffset": 36176,
      "componentType": 5126,
      "count": 228,
      "max": [
        0.5812278389930725,
        -0.0
      ],
      "min": [
        0.2814770042896271,
        -0.6271600723266602
      ],
      "type": "VEC2"
    },
    {
      "bufferView": 0,
      "byteOffset": 34560,
      "componentType": 5125,
      "count": 660,
      "type": "SCALAR"
    },
    {
      "bufferView": 2,
      "byteOffset": 114000,
      "componentType": 5126,
      "count": 456,
      "max": [
        19.379446029663086,
        10.738848686218262,
        17.573291778564453
      ],
      "min": [
        -18.47716522216797,
        8.418614387512207,
        -15.233108520507813
      ],
      "type": "VEC3"
    },
    {
      "bufferView": 2,
      "byteOffset": 119472,
      "componentType": 5126,
      "count": 456,
      "max": [
        0.9827769994735718,
        -0.0,
        0.9947390556335449
      ],
      "min": [
        -0.9788614511489868,
        -0.0,
        -0.9975066184997559
      ],
      "type": "VEC3"
    },
    {
      "bufferView": 1,
      "byteOffset": 38000,
      "componentType": 5126,
      "count": 456,
      "max": [
        1.0,
        -0.0
      ],
      "min": [
        0.0,
        -1.0
      ],
      "type": "VEC2"
    },
    {
      "bufferView": 0,
      "byteOffset": 37200,
      "componentType": 5125,
      "count": 684,
      "type": "SCALAR"
    }
  ],
  "asset": {
    "extras": {
      "author": "PriscilaSantiago (https://sketchfab.com/PriscilaSantiago)",
      "license": "CC-BY-4.0 (http://creativecommons.org/licenses/by/4.0/)",
      "source": "https://sketchfab.com/3d-models/heart-emoji-fbe5ef1d09cb408c9c6dcdd7c0b47d9b",
      "title": "Heart Emoji"
    },
    "generator": "Sketchfab-12.66.0",
    "version": "2.0"
  },
  "bufferViews": [
    {
      "buffer": 0,
      "byteLength": 39936,
      "name": "floatBufferViews",
      "target": 34963
    },
    {
      "buffer": 0,
      "byteLength": 41648,
      "byteOffset": 39936,
      "byteStride": 8,
      "name": "floatBufferViews",
      "target": 34962
    },
    {
      "buffer": 0,
      "byteLength": 124944,
      "byteOffset": 81584,
      "byteStride": 12,
      "name": "floatBufferViews",
      "target": 34962
    }
  ],
  "buffers": [
    {
      "byteLength": 206528,
      "uri": "scene.bin"
    }
  ],
  "extensionsRequired": [
    "KHR_materials_pbrSpecularGlossiness"
  ],
  "extensionsUsed": [
    "KHR_materials_pbrSpecularGlossiness"
  ],
  "materials": [
    {
      "doubleSided": true,
      "extensions": {
        "KHR_materials_pbrSpecularGlossiness": {
          "diffuseFactor": [
            1.0,
            0.9216957723312951,
            0.03421842137872357,
            1.0
          ],
          "glossinessFactor": 1.0,
          "specularFactor": [
            0.3361195726854301,
            0.3361195726854301,
            0.3361195726854301
          ]
        }
      },
      "name": "default"
    },
    {
      "doubleSided": true,
      "extensions": {
        "KHR_materials_pbrSpecularGlossiness": {
          "diffuseFactor": [
            0.9899636880863927,
            0.8269847112061693,
            0.12143180310035867,
            1.0
          ],
          "glossinessFactor": 0.4,
          "specularFactor": [
            0.0,
            0.0,
            0.0
          ]
        }
      },
      "name": "heartSparkles"
    },
    {
      "doubleSided": true,
      "extensions": {
        "KHR_materials_pbrSpecularGlossiness": {
          "diffuseFactor": [
            1.0,
            0.2482802702197365,
            0.9001842179943098,
            1.0
          ],
          "glossinessFactor": 1.0,
          "specularFactor": [
            0.12939368513215257,
            0.12939368513215257,
            0.12939368513215257
          ]
        }
      },
      "name": "pinkHeart"
    }
  ],
  "meshes": [
    {
      "name": "Object_0",
      "primitives": [
        {
          "attributes": {
            "NORMAL": 1,
            "POSITION": 0,
            "TEXCOORD_0": 2
          },
          "indices": 3,
          "material": 2,
          "mode": 4
        }
      ]
    },
    {
      "name": "Object_1",
      "primitives": [
        {
          "attributes": {
            "NORMAL": 5,
            "POSITION": 4,
            "TEXCOORD_0": 6
          },
          "indices": 7,
          "material": 0,
          "mode": 4
        }
      ]
    },
    {
      "name": "Object_2",
      "primitives": [
        {
          "attributes": {
            "NORMAL": 9,
            "POSITION": 8,
            "TEXCOORD_0": 10
          },
          "indices": 11,
          "material": 1,
          "mode": 4
        }
      ]
    }
  ],
  "nodes": [
    {
      "children": [
        1
      ],
      "matrix": [
        0.025732416659593582,
        0.0,
        0.0,
        0.0,
        0.0,
        5.713744290945751e-18,
        -0.025732416659593582,
        0.0,
        0.0,
        0.025732416659593582,
        5.713744290945751e-18,
        0.0,
        0.0,
        0.0,
        0.0,
        1.0
      ],
      "name": "Sketchfab_model"
    },
    {
      "children": [
        2,
        3,
        4
      ],
      "name": "6791dc04b3dc4d78a25176a4667edb7a.obj.cleaner.materialmerger.gles"
    },
    {
      "mesh": 0,
      "name": "Object_2"
    },
    {
      "mesh": 1,
      "name": "Object_3"
    },
    {
      "mesh": 2,
      "name": "Object_4"
    }
  ],
  "scene": 0,
  "scenes": [
    {
      "name": "Sketchfab_Scene",
      "nodes": [
        0
      ]
    }
  ]
}
