{
  "accessors": [
    {
      "bufferView": 2,
      "componentType": 5126,
      "count": 65532,
      "max": [
        0.35429999232292175,
        0.4193210005760193,
        1.0043590068817139
      ],
      "min": [
        -0.33412501215934753,
        -0.4475429952144623,
        -0.0
      ],
      "type": "VEC3"
    },
    {
      "bufferView": 2,
      "byteOffset": 786384,
      "componentType": 5126,
      "count": 65532,
      "max": [
        0.9309359192848206,
        0.9322027564048767,
        0.9999999403953552
      ],
      "min": [
        -0.9178974628448486,
        -0.9040700793266296,
        -1.0
      ],
      "type": "VEC3"
    },
    {
      "bufferView": 1,
      "componentType": 5126,
      "count": 65532,
      "max": [
        1.0,
        1.9999899864196777
      ],
      "min": [
        0.0,
        0.0019499999471008778
      ],
      "type": "VEC2"
    },
    {
      "bufferView": 0,
      "componentType": 5125,
      "count": 311823,
      "type": "SCALAR"
    },
    {
      "bufferView": 2,
      "byteOffset": 1572768,
      "componentType": 5126,
      "count": 65532,
      "max": [
        0.4674589931964874,
        0.4708310067653656,
        1.0035680532455444
      ],
      "min": [
        -0.42841699719429016,
        -0.5008519887924194,
        0.0007249999907799065
      ],
      "type": "VEC3"
    },
    {
      "bufferView": 2,
      "byteOffset": 2359152,
      "componentType": 5126,
      "count": 65532,
      "max": [
        0.9704779386520386,
        0.9436151385307312,
        0.9992580413818359
      ],
      "min": [
        -0.9653461575508118,
        -0.9999998211860657,
        -0.999991774559021
      ],
      "type": "VEC3"
    },
    {
      "bufferView": 1,
      "byteOffset": 524256,
      "componentType": 5126,
      "count": 65532,
      "max": [
        1.0,
        0.9882799983024597
      ],
      "min": [
        0.0009699999936856329,
        0.01561999972909689
      ],
      "type": "VEC2"
    },
    {
      "bufferView": 0,
      "byteOffset": 1247292,
      "componentType": 5125,
      "count": 289059,
      "type": "SCALAR"
    },
    {
      "bufferView": 2,
      "byteOffset": 3145536,
      "componentType": 5126,
      "count": 65532,
      "max": [
        0.4894599914550781,
        0.4419569969177246,
        0.9989089965820313
      ],
      "min": [
        -0.4549579918384552,
        -0.4882360100746155,
        0.017292000353336334
      ],
      "type": "VEC3"
    },
    {
      "bufferView": 2,
      "byteOffset": 3931920,
      "componentType": 5126,
      "count": 65532,
      "max": [
        0.988082230091095,
        0.9257981181144714,
        0.9900258183479309
      ],
      "min": [
        -0.9997895359992981,
        -0.974787712097168,
        -0.9997676610946655
      ],
      "type": "VEC3"
    },
    {
      "bufferView": 1,
      "byteOffset": 1048512,
      "componentType": 5126,
      "count": 65532,
      "max": [
        1.0,
        0.9550700187683105
      ],
      "min": [
        0.0019499999471008778,
        0.07812000066041946
      ],
      "type": "VEC2"
    },
    {
      "bufferView": 0,
      "byteOffset": 2403528,
      "componentType": 5125,
      "count": 284781,
      "type": "SCALAR"
    },
    {
      "bufferView": 2,
      "byteOffset": 4718304,
      "componentType": 5126,
      "count": 65532,
      "max": [
        0.5018439888954163,
        0.4864470064640045,
        1.0035680532455444
      ],
      "min": [
        -0.4992380142211914,
        -0.4986709952354431,
        0.07474900037050247
      ],
      "type": "VEC3"
    },
    {
      "bufferView": 2,
      "byteOffset": 5504688,
      "componentType": 5126,
      "count": 65532,
      "max": [
        0.9998764395713806,
        0.9849403500556946,
        0.999258279800415
      ],
      "min": [
        -0.9999995231628418,
        -0.9956761598587036,
        -0.9575417041778564
      ],
      "type": "VEC3"
    },
    {
      "bufferView": 1,
      "byteOffset": 1572768,
      "componentType": 5126,
      "count": 65532,
      "max": [
        1.0,
        0.9882799983024597
      ],
      "min": [
        0.0019499999471008778,
        0.17186999320983887
      ],
      "type": "VEC2"
    },
    {
      "bufferView": 0,
      "byteOffset": 3542652,
      "componentType": 5125,
      "count": 283287,
      "type": "SCALAR"
    },
    {
      "bufferView": 2,
      "byteOffset": 6291072,
      "componentType": 5126,
      "count": 65532,
      "max": [
        0.5030040144920349,
        0.49904099106788635,
        0.8824880123138428
      ],
      "min": [
        -0.49839499592781067,
        -0.4997609853744507,
        0.16673700511455536
      ],
      "type": "VEC3"
    },
    {
      "bufferView": 2,
      "byteOffset": 7077456,
      "componentType": 5126,
      "count": 65532,
      "max": [
        0.9998764395713806,
        0.9999995231628418,
        0.9333946704864502
      ],
      "min": [
        -0.9996777176856995,
        -0.9992456436157227,
        -0.835259199142456
      ],
      "type": "VEC3"
    },
    {
      "bufferView": 1,
      "byteOffset": 2097024,
      "componentType": 5126,
      "count": 65532,
      "max": [
        1.0,
        0.7734299898147583
      ],
      "min": [
        0.0019499999471008778,
        0.26561999320983887
      ],
      "type": "VEC2"
    },
    {
      "bufferView": 0,
      "byteOffset": 4675800,
      "componentType": 5125,
      "count": 285435,
      "type": "SCALAR"
    },
    {
      "bufferView": 2,
      "byteOffset": 7863840,
      "componentType": 5126,
      "count": 65532,
      "max": [
        0.5029550194740295,
        0.49900299310684204,
        0.9993320107460022
      ],
      "min": [
        -0.4992380142211914,
        -0.5006639957427979,
        0.267971009016037
      ],
      "type": "VEC3"
    },
    {
      "bufferView": 2,
      "byteOffset": 8650224,
      "componentType": 5126,
      "count": 65532,
      "max": [
        0.9996922612190247,
        0.9999304413795471,
        0.9909497499465942
      ],
      "min": [
        -0.9999995231628418,
        -0.9999788999557495,
        -0.7573237419128418
      ],
      "type": "VEC3"
    },
    {
      "bufferView": 1,
      "byteOffset": 2621280,
      "componentType": 5126,
      "count": 65532,
      "max": [
        1.0,
        0.9570299983024597
      ],
      "min": [
        0.0019499999471008778,
        0.34375
      ],
      "type": "VEC2"
    },
    {
      "bufferView": 0,
      "byteOffset": 5817540,
      "componentType": 5125,
      "count": 285165,
      "type": "SCALAR"
    },
    {
      "bufferView": 2,
      "byteOffset": 9436608,
      "componentType": 5126,
      "count": 65532,
      "max": [
        0.5030040144920349,
        0.49904099106788635,
        1.0025229454040527
      ],
      "min": [
        -0.49922800064086914,
        -0.5008519887924194,
        0.40595299005508423
      ],
      "type": "VEC3"
    },
    {
      "bufferView": 2,
      "byteOffset": 10222992,
      "componentType": 5126,
      "count": 65532,
      "max": [
        0.9999997019767761,
        0.9999995231628418,
        0.9977532029151917
      ],
      "min": [
        -0.9999869465827942,
        -0.9999998211860657,
        -0.7340081930160522
      ],
      "type": "VEC3"
    },
    {
      "bufferView": 1,
      "byteOffset": 3145536,
      "componentType": 5126,
      "count": 65532,
      "max": [
        1.0,
        0.9765599966049194
      ],
      "min": [
        0.0019499999471008778,
        0.4375
      ],
      "type": "VEC2"
    },
    {
      "bufferView": 0,
      "byteOffset": 6958200,
      "componentType": 5125,
      "count": 290310,
      "type": "SCALAR"
    },
    {
      "bufferView": 2,
      "byteOffset": 11009376,
      "componentType": 5126,
      "count": 65532,
      "max": [
        0.36928999423980713,
        0.49087199568748474,
        1.0043590068817139
      ],
      "min": [
        -0.4972440004348755,
        -0.497096985578537,
        0.5037369728088379
      ],
      "type": "VEC3"
    },
    {
      "bufferView": 2,
      "byteOffset": 11795760,
      "componentType": 5126,
      "count": 65532,
      "max": [
        0.7684429883956909,
        0.9873993396759033,
        0.9999999403953552
      ],
      "min": [
        -0.9960696697235107,
        -0.9974727034568787,
        -0.22758544981479645
      ],
      "type": "VEC3"
    },
    {
      "bufferView": 1,
      "byteOffset": 3669792,
      "componentType": 5126,
      "count": 65532,
      "max": [
        1.0,
        0.9999899864196777
      ],
      "min": [
        0.0019499999471008778,
        0.5
      ],
      "type": "VEC2"
    },
    {
      "bufferView": 0,
      "byteOffset": 8119440,
      "componentType": 5125,
      "count": 314955,
      "type": "SCALAR"
    },
    {
      "bufferView": 2,
      "byteOffset": 12582144,
      "componentType": 5126,
      "count": 65532,
      "max": [
        0.4402559995651245,
        0.33452799916267395,
        1.0043590068817139
      ],
      "min": [
        -0.33427000045776367,
        -0.3321020007133484,
        0.5435900092124939
      ],
      "type": "VEC3"
    },
    {
      "bufferView": 2,
      "byteOffset": 13368528,
      "componentType": 5126,
      "count": 65532,
      "max": [
        0.9468833208084106,
        0.9556983709335327,
        1.0
      ],
      "min": [
        -0.8066197633743286,
        -0.8784669041633606,
        0.07969505339860916
      ],
      "type": "VEC3"
    },
    {
      "bufferView": 1,
      "byteOffset": 4194048,
      "componentType": 5126,
      "count": 65532,
      "max": [
        1.0,
        0.9999899864196777
      ],
      "min": [
        0.0019499999471008778,
        0.5253900289535522
      ],
      "type": "VEC2"
    },
    {
      "bufferView": 0,
      "byteOffset": 9379260,
      "componentType": 5125,
      "count": 302580,
      "type": "SCALAR"
    },
    {
      "bufferView": 2,
      "byteOffset": 14154912,
      "componentType": 5126,
      "count": 65532,
      "max": [
        0.44285300374031067,
        0.44464200735092163,
        1.0043590068817139
      ],
      "min": [
        -0.42917400598526,
        -0.4248969852924347,
        0.6193000078201294
      ],
      "type": "VEC3"
    },
    {
      "bufferView": 2,
      "byteOffset": 14941296,
      "componentType": 5126,
      "count": 65532,
      "max": [
        0.975001871585846,
        0.9849943518638611,
        0.9999999403953552
      ],
      "min": [
        -0.9624691605567932,
        -0.9986093640327454,
        -0.8828961253166199
      ],
      "type": "VEC3"
    },
    {
      "bufferView": 1,
      "byteOffset": 4718304,
      "componentType": 5126,
      "count": 65532,
      "max": [
        1.0,
        0.9999899864196777
      ],
      "min": [
        0.0,
        0.574209988117218
      ],
      "type": "VEC2"
    },
    {
      "bufferView": 0,
      "byteOffset": 10589580,
      "componentType": 5125,
      "count": 267672,
      "type": "SCALAR"
    },
    {
      "bufferView": 2,
      "byteOffset": 15727680,
      "componentType": 5126,
      "count": 57315,
      "max": [
        0.5006089806556702,
        0.4988049864768982,
        0.8400269746780396
      ],
      "min": [
        -0.49919000267982483,
        -0.500777006149292,
        0.5037369728088379
      ],
      "type": "VEC3"
    },
    {
      "bufferView": 2,
      "byteOffset": 16415460,
      "componentType": 5126,
      "count": 57315,
      "max": [
        0.9999021887779236,
        0.9995381236076355,
        0.9333426356315613
      ],
      "min": [
        -0.999891459941864,
        -0.9999961256980896,
        -0.5867014527320862
      ],
      "type": "VEC3"
    },
    {
      "bufferView": 1,
      "byteOffset": 5242560,
      "componentType": 5126,
      "count": 57315,
      "max": [
        1.0,
        0.7343699932098389
      ],
      "min": [
        0.0019499999471008778,
        0.5
      ],
      "type": "VEC2"
    },
    {
      "bufferView": 0,
      "byteOffset": 11660268,
      "componentType": 5125,
      "count": 215466,
      "type": "SCALAR"
    }
  ],
  "asset": {
    "extras": {
      "author": "Ricardo Garnica (https://sketchfab.com/rjgarnicap)",
      "license": "CC-BY-4.0 (http://creativecommons.org/licenses/by/4.0/)",
      "source": "https://sketchfab.com/3d-models/earth-globe-atlas-cd178e25a0e6436380b15fc1539a25f2",
      "title": "Earth Globe - Atlas"
    },
    "generator": "Sketchfab-15.58.0",
    "version": "2.0"
  },
  "bufferViews": [
    {
      "buffer": 0,
      "byteLength": 12522132,
      "name": "floatBufferViews",
      "target": 34963
    },
    {
      "buffer": 0,
      "byteLength": 5701080,
      "byteOffset": 12522132,
      "byteStride": 8,
      "name": "floatBufferViews",
      "target": 34962
    },
    {
      "buffer": 0,
      "byteLength": 17103240,
      "byteOffset": 18223212,
      "byteStride": 12,
      "name": "floatBufferViews",
      "target": 34962
    }
  ],
  "buffers": [
    {
      "byteLength": 35326452,
      "uri": "scene.bin"
    }
  ],
  "images": [
    {
      "uri": "textures/heightmap_ref_group_baseColor.png"
    }
  ],
  "materials": [
    {
      "doubleSided": true,
      "name": "heightmap_ref_group",
      "pbrMetallicRoughness": {
        "baseColorTexture": {
          "index": 0
        },
        "metallicFactor": 0.0
      }
    }
  ],
  "meshes": [
    {
      "name": "Object_0",
      "primitives": [
        {
          "attributes": {
            "NORMAL": 1,
            "POSITION": 0,
            "TEXCOORD_0": 2
          },
          "indices": 3,
          "material": 0,
          "mode": 4
        }
      ]
    },
    {
      "name": "Object_1",
      "primitives": [
        {
          "attributes": {
            "NORMAL": 5,
            "POSITION": 4,
            "TEXCOORD_0": 6
          },
          "indices": 7,
          "material": 0,
          "mode": 4
        }
      ]
    },
    {
      "name": "Object_2",
      "primitives": [
        {
          "attributes": {
            "NORMAL": 9,
            "POSITION": 8,
            "TEXCOORD_0": 10
          },
          "indices": 11,
          "material": 0,
          "mode": 4
        }
      ]
    },
    {
      "name": "Object_3",
      "primitives": [
        {
          "attributes": {
            "NORMAL": 13,
            "POSITION": 12,
            "TEXCOORD_0": 14
          },
          "indices": 15,
          "material": 0,
          "mode": 4
        }
      ]
    },
    {
      "name": "Object_4",
      "primitives": [
        {
          "attributes": {
            "NORMAL": 17,
            "POSITION": 16,
            "TEXCOORD_0": 18
          },
          "indices": 19,
          "material": 0,
          "mode": 4
        }
      ]
    },
    {
      "name": "Object_5",
      "primitives": [
        {
          "attributes": {
            "NORMAL": 21,
            "POSITION": 20,
            "TEXCOORD_0": 22
          },
          "indices": 23,
          "material": 0,
          "mode": 4
        }
      ]
    },
    {
      "name": "Object_6",
      "primitives": [
        {
          "attributes": {
            "NORMAL": 25,
            "POSITION": 24,
            "TEXCOORD_0": 26
          },
          "indices": 27,
          "material": 0,
          "mode": 4
        }
      ]
    },
    {
      "name": "Object_7",
      "primitives": [
        {
          "attributes": {
            "NORMAL": 29,
            "POSITION": 28,
            "TEXCOORD_0": 30
          },
          "indices": 31,
          "material": 0,
          "mode": 4
        }
      ]
    },
    {
      "name": "Object_8",
      "primitives": [
        {
          "attributes": {
            "NORMAL": 33,
            "POSITION": 32,
            "TEXCOORD_0": 34
          },
          "indices": 35,
          "material": 0,
          "mode": 4
        }
      ]
    },
    {
      "name": "Object_9",
      "primitives": [
        {
          "attributes": {
            "NORMAL": 37,
            "POSITION": 36,
            "TEXCOORD_0": 38
          },
          "indices": 39,
          "material": 0,
          "mode": 4
        }
      ]
    },
    {
      "name": "Object_10",
      "primitives": [
        {
          "attributes": {
            "NORMAL": 41,
            "POSITION": 40,
            "TEXCOORD_0": 42
          },
          "indices": 43,
          "material": 0,
          "mode": 4
        }
      ]
    }
  ],
  "nodes": [
    {
      "children": [
        1
      ],
      "matrix": [
        1.0,
        0.0,
        0.0,
        0.0,
        0.0,
        2.220446049250313e-16,
        -1.0,
        0.0,
        0.0,
        1.0,
        2.220446049250313e-16,
        0.0,
        0.0,
        0.0,
        0.0,
        1.0
      ],
      "name": "Sketchfab_model"
    },
    {
      "children": [
        2,
        3,
        4,
        5,
        6,
        7,
        8,
        9,
        10,
        11,
        12
      ],
      "name": "Atlas.obj.cleaner.materialmerger.gles"
    },
    {
      "mesh": 0,
      "name": "Object_2"
    },
    {
      "mesh": 1,
      "name": "Object_3"
    },
    {
      "mesh": 2,
      "name": "Object_4"
    },
    {
      "mesh": 3,
      "name": "Object_5"
    },
    {
      "mesh": 4,
      "name": "Object_6"
    },
    {
      "mesh": 5,
      "name": "Object_7"
    },
    {
      "mesh": 6,
      "name": "Object_8"
    },
    {
      "mesh": 7,
      "name": "Object_9"
    },
    {
      "mesh": 8,
      "name": "Object_10"
    },
    {
      "mesh": 9,
      "name": "Object_11"
    },
    {
      "mesh": 10,
      "name": "Object_12"
    }
  ],
  "samplers": [
    {
      "magFilter": 9729,
      "minFilter": 9987,
      "wrapS": 10497,
      "wrapT": 10497
    }
  ],
  "scene": 0,
  "scenes": [
    {
      "name": "Sketchfab_Scene",
      "nodes": [
        0
      ]
    }
  ],
  "textures": [
    {
      "sampler": 0,
      "source": 0
    }
  ]
}
