<svg class="img-fluid" id="outputsvg" xmlns="http://www.w3.org/2000/svg" style="transform: none; transform-origin: 50% 50%; cursor: move; max-height: 358.9px;" width="1820" height="1600" viewBox="0 0 18200 16000"><g id="l6ymkd6QAtapcaKx3c0ZVd9" fill="rgb(242,242,242)" style="transform: none;"><g><path id="pYXkpthub" d="M0 8000 l0 -8000 9100 0 9100 0 0 8000 0 8000 -9100 0 -9100 0 0 -8000z m15849 5546 c53 -24 150 -68 216 -97 66 -28 122 -54 124 -55 2 -2 -3053 -4 -6789 -4 -3778 0 -6790 4 -6785 9 6 4 48 24 95 44 117 50 300 134 307 141 4 3 2871 6 6372 6 l6365 0 95 -44z m231 -2388 c-58 -27 -154 -72 -215 -99 l-109 -49 -1354 0 -1354 0 6 -67 c4 -38 9 -140 12 -228 6 -147 4 -173 -22 -320 -42 -234 -37 -319 30 -550 96 -333 103 -383 87 -618 -6 -100 -17 -227 -23 -282 -6 -55 -8 -162 -6 -237 l4 -136 40 -47 c96 -114 167 -217 209 -300 165 -332 95 -546 -329 -995 -60 -63 -145 -160 -190 -215 -44 -55 -131 -152 -193 -215 -96 -98 -112 -120 -113 -147 0 -31 2 -33 34 -33 40 0 191 103 338 232 51 45 101 88 110 96 16 13 17 12 9 -14 -23 -78 -119 -311 -143 -346 -10 -14 -18 -30 -18 -35 0 -19 -142 -163 -197 -199 -167 -111 -369 -162 -676 -171 -213 -7 -203 -3 -297 -108 -111 -123 -170 -223 -170 -285 l0 -43 78 7 c214 18 226 18 265 1 42 -17 49 -27 154 -220 37 -66 104 -172 151 -235 91 -125 118 -172 154 -271 21 -60 23 -79 23 -299 l0 -235 37 -50 c20 -27 50 -75 65 -105 l28 -55 3 -320 c4 -344 -3 -436 -44 -592 -23 -88 -77 -223 -89 -223 -3 0 -1 9 5 19 5 11 10 38 10 60 0 40 -1 41 -32 41 -27 0 -38 -7 -58 -38 -98 -146 -299 -296 -486 -361 -301 -105 -684 -74 -1031 84 -213 98 -386 277 -478 496 -80 190 -71 525 21 807 28 84 127 270 190 355 45 62 64 96 64 117 0 27 -3 30 -32 30 -39 0 -57 -15 -124 -95 -172 -209 -256 -376 -311 -619 -42 -183 -33 -460 18 -618 67 -202 195 -378 374 -511 126 -93 261 -154 437 -196 119 -28 128 -31 78 -25 -160 18 -408 110 -544 202 -85 58 -118 90 -209 201 -30 38 -166 293 -183 346 -9 27 -20 55 -24 60 -8 11 -13 31 -35 150 -19 99 -19 148 0 250 38 214 122 421 242 601 172 260 351 595 387 729 28 105 64 318 65 393 1 41 0 42 -33 42 -38 0 -46 -12 -87 -135 l-23 -70 -8 84 c-19 197 -67 309 -177 405 l-33 30 59 17 c75 21 106 37 225 117 91 61 98 67 98 99 0 31 -2 33 -35 33 -20 0 -52 -7 -72 -15 -68 -28 -217 -63 -330 -76 -90 -10 -129 -10 -195 0 -162 24 -346 95 -483 185 -135 90 -246 238 -305 406 -7 19 -16 44 -21 55 -37 88 -119 520 -154 810 -13 111 -38 244 -57 310 -29 101 -56 162 -182 420 -127 258 -174 376 -206 515 -44 192 -101 404 -124 464 -31 76 -72 201 -81 243 -3 18 -1 76 5 130 20 169 51 265 145 452 89 178 143 268 332 552 138 209 163 253 163 284 l0 38 -52 -7 c-29 -3 -78 -6 -108 -6 l-55 -1 -56 -77 c-104 -143 -243 -358 -322 -497 -37 -66 -157 -313 -157 -324 0 -5 -9 -28 -19 -52 -11 -24 -29 -79 -40 -121 -44 -162 -18 -518 58 -818 30 -120 94 -293 219 -590 22 -52 43 -106 47 -120 4 -14 53 -104 108 -200 162 -285 150 -251 202 -566 104 -626 169 -876 293 -1119 96 -190 199 -308 349 -401 105 -66 184 -92 357 -119 l38 -6 -21 -23 c-30 -32 -104 -71 -176 -92 -131 -40 -385 -12 -612 66 -48 16 -103 30 -121 30 -32 0 -33 -1 -30 -37 3 -35 7 -40 61 -66 32 -16 104 -45 160 -64 56 -19 108 -38 116 -43 20 -11 -147 -108 -396 -231 l-202 -99 -29 -62 c-16 -35 -41 -91 -57 -125 -15 -35 -31 -61 -35 -58 -3 2 -12 41 -20 87 -12 78 -10 155 6 296 l6 53 -38 -3 c-31 -2 -40 -9 -55 -38 -72 -139 -59 -564 25 -805 26 -76 82 -228 96 -260 42 -96 133 -394 168 -550 62 -272 57 -483 -19 -715 -22 -66 -77 -182 -108 -229 -10 -14 -33 -48 -51 -76 -67 -101 -224 -252 -342 -330 -281 -187 -673 -287 -961 -245 -177 26 -393 100 -497 170 -14 9 -52 35 -84 56 -78 51 -247 218 -320 316 -180 242 -254 472 -227 701 6 52 11 192 11 311 0 212 0 216 29 293 25 69 30 99 39 268 15 251 38 357 109 500 29 58 40 90 83 245 50 178 94 274 157 341 76 82 113 89 363 74 l135 -7 24 26 c21 22 25 37 25 92 1 75 12 64 -94 95 -56 16 -142 58 -206 100 -66 44 -208 164 -227 192 -8 12 -24 31 -34 42 -11 11 -28 33 -37 48 -18 26 -21 27 -117 27 -83 0 -112 5 -191 31 -51 17 -115 43 -143 56 -141 71 -333 238 -436 378 -32 44 -62 85 -67 90 -25 31 -116 202 -146 276 -30 73 -96 282 -96 303 0 3 33 -18 73 -49 53 -40 83 -55 105 -55 30 0 32 2 32 38 0 21 -9 48 -20 62 -11 14 -20 29 -20 33 0 14 -79 115 -143 183 -34 37 -113 112 -175 167 -333 293 -501 609 -557 1052 -13 95 -15 163 -11 253 l7 122 -35 0 c-29 0 -36 -5 -44 -30 -21 -59 -92 -167 -157 -238 -140 -151 -448 -369 -788 -557 -37 -20 -91 -58 -120 -84 -29 -26 -76 -66 -104 -90 l-53 -43 -47 33 c-65 44 -235 131 -319 162 -80 30 -198 62 -266 72 -27 3 -48 9 -48 12 0 9 105 174 199 313 304 451 609 827 936 1155 217 218 360 338 481 404 194 106 220 120 273 141 141 55 225 55 339 -1 88 -43 226 -183 335 -339 53 -77 148 -222 166 -256 40 -74 122 -208 135 -224 31 -34 56 -93 66 -152 22 -134 91 -567 101 -638 5 -41 15 -101 20 -132 6 -32 10 -106 10 -165 0 -93 -4 -123 -32 -218 -32 -107 -33 -115 -33 -295 0 -205 11 -270 76 -433 33 -82 33 -82 72 -85 l39 -3 -6 43 c-4 24 -11 66 -17 93 -30 149 -30 315 -2 410 36 119 129 226 247 281 72 35 75 38 75 70 l0 34 -144 0 -144 0 10 43 c12 50 4 317 -11 367 -19 63 -79 313 -97 400 -11 56 -17 136 -18 235 -1 164 -7 136 115 595 39 146 42 165 46 330 5 166 2 211 -34 538 l-6 52 -1442 0 -1442 0 -94 44 c-52 24 -139 64 -194 88 -55 24 -111 49 -125 56 -18 8 1769 11 6765 11 l6790 0 -105 -51z m-2615 -1292 c159 -100 411 -288 605 -450 334 -279 429 -365 745 -676 143 -141 283 -276 312 -301 l51 -46 -146 -53 c-81 -29 -176 -65 -210 -81 -74 -33 -56 -38 -216 66 -258 169 -583 330 -789 392 -27 8 -144 62 -261 120 l-213 106 -7 171 c-9 208 -60 640 -96 801 -5 22 -11 55 -14 72 l-5 33 82 -52 c45 -28 118 -74 162 -102z m-10800 -1586 c165 -18 246 -39 384 -99 161 -70 248 -128 380 -255 133 -129 227 -274 295 -457 56 -151 70 -234 70 -399 0 -149 -8 -200 -56 -350 -22 -70 -115 -260 -146 -298 l-18 -24 -14 42 c-10 29 -25 50 -49 66 -70 46 -193 54 -263 18 l-27 -14 34 67 c67 132 79 189 80 373 0 181 -14 248 -76 372 -35 69 -44 80 -129 171 -141 150 -356 229 -576 214 -278 -20 -497 -164 -610 -402 -40 -83 -74 -233 -74 -324 0 -118 35 -271 83 -366 29 -58 118 -176 158 -209 23 -20 28 -27 14 -23 -49 14 -134 18 -173 8 -68 -19 -87 -56 -87 -171 0 -81 4 -101 23 -133 l22 -38 -42 30 c-24 16 -73 55 -111 85 -58 49 -91 87 -207 236 -30 39 -106 190 -128 255 -75 221 -102 405 -83 558 37 296 156 545 360 747 123 122 229 194 353 239 106 39 191 58 333 75 142 17 171 18 280 6z m13106 0 c214 -20 408 -78 544 -163 98 -61 264 -224 333 -327 161 -243 243 -542 213 -782 -12 -98 -45 -239 -78 -337 -80 -236 -242 -447 -461 -600 l-32 -23 22 39 c20 32 23 52 23 133 0 83 -3 99 -23 127 -30 42 -85 57 -171 49 l-63 -7 52 58 c102 115 161 237 186 393 19 115 18 180 -5 295 -46 226 -175 397 -376 497 -229 115 -539 98 -750 -41 -143 -94 -233 -213 -293 -390 -23 -69 -26 -90 -26 -241 -1 -154 1 -171 27 -255 16 -49 42 -114 58 -143 l30 -53 -28 15 c-70 36 -198 28 -264 -17 -21 -14 -38 -37 -47 -66 l-15 -44 -19 24 c-10 13 -45 76 -77 139 -175 350 -172 697 9 1055 56 109 109 184 207 286 66 69 210 189 227 189 4 0 19 9 34 20 27 20 212 104 267 121 58 18 121 30 230 43 143 18 145 18 266 6z m-12999 -779 c87 -34 173 -96 223 -161 25 -32 45 -61 45 -64 0 -3 -12 -1 -26 4 -34 13 -147 13 -176 -1 -31 -14 -68 -69 -68 -102 0 -33 0 -33 -53 -5 -56 29 -195 32 -246 4 -75 -40 -111 -102 -121 -211 l-6 -70 -11 40 c-6 22 -14 51 -17 65 -8 37 -57 55 -151 55 -67 0 -85 -4 -112 -23 l-31 -22 15 57 c36 140 155 304 268 372 31 19 91 47 133 63 69 25 87 28 177 25 73 -3 115 -10 157 -26z m12956 13 c165 -47 308 -165 380 -315 23 -46 48 -108 56 -137 l15 -53 -30 22 c-55 39 -211 36 -252 -6 -8 -8 -18 -33 -21 -57 -4 -24 -13 -53 -20 -66 -11 -20 -12 -16 -8 36 7 102 -34 189 -111 232 -59 34 -192 35 -254 2 -53 -28 -53 -28 -53 5 0 33 -37 88 -68 102 -30 14 -157 14 -183 1 -28 -16 -24 -4 21 52 102 128 238 196 393 197 44 1 104 -6 135 -15z m-5355 -1886 c54 -239 49 -356 -22 -579 -27 -84 -63 -155 -136 -269 -12 -19 -55 -91 -95 -160 -40 -69 -86 -145 -101 -170 -15 -25 -54 -101 -87 -170 -195 -405 -155 -817 114 -1177 30 -40 49 -73 42 -73 -56 1 -205 71 -286 134 -194 153 -306 470 -280 793 27 332 149 614 352 813 46 44 56 60 56 87 0 30 -3 33 -31 33 -66 0 -293 -221 -401 -390 -138 -215 -228 -512 -228 -750 0 -99 26 -250 57 -328 109 -275 406 -472 713 -472 94 0 100 1 100 21 0 18 2 18 24 -8 14 -15 21 -32 17 -36 -4 -4 -35 -12 -68 -17 -126 -21 -331 32 -501 127 -103 58 -250 194 -315 291 -111 166 -151 294 -151 487 0 118 3 139 32 232 41 129 63 181 115 268 131 220 238 336 512 555 279 223 407 361 484 524 34 71 61 168 61 220 0 40 15 49 23 14z m1986 -2510 c-25 -48 -101 -138 -151 -180 -95 -79 -94 -74 4 22 53 52 108 114 123 138 29 45 44 57 24 20z m-1120 -444 c8 -7 -104 -2 -134 7 -18 5 1 6 50 2 44 -3 82 -7 84 -9z m144 -11 c-23 -2 -64 -2 -90 0 -26 2 -7 3 42 3 50 0 71 -1 48 -3z"></path><path id="p1GT4NGSub" d="M6550 10893 c0 -158 40 -359 97 -486 30 -67 30 -69 -37 -277 -50 -155 -58 -194 -71 -342 -9 -95 -9 -170 0 -297 15 -223 13 -330 -5 -421 -9 -41 -18 -99 -21 -127 l-5 -53 34 0 c26 0 50 14 113 66 130 108 280 242 510 456 22 21 43 38 48 38 4 0 7 16 7 35 0 34 -2 35 -36 35 -20 0 -57 -11 -83 -24 -80 -42 -112 -48 -162 -31 -94 33 -166 140 -194 290 -41 212 89 464 287 559 40 19 95 38 121 41 48 7 48 8 45 43 -3 35 -4 36 -65 50 -77 17 -173 79 -226 148 -74 94 -109 184 -146 374 l-7 35 -102 3 -102 3 0 -118z"></path><path id="pzL672HXe" d="M10115 10998 c-35 -102 -49 -140 -65 -178 -10 -25 -25 -63 -33 -85 -152 -388 -347 -746 -471 -864 -41 -40 -42 -48 -20 -151 8 -41 20 -99 24 -128 8 -44 19 -64 63 -115 80 -91 216 -281 291 -405 183 -305 296 -605 332 -887 8 -66 22 -135 30 -152 13 -28 20 -33 51 -33 l36 0 -7 83 c-4 45 -11 145 -16 222 -11 162 -27 329 -39 398 l-8 48 86 125 c122 177 134 197 194 314 56 109 113 239 143 325 22 64 31 283 15 365 -12 62 -77 203 -110 242 -11 13 -33 39 -48 59 -15 20 -85 97 -154 172 -69 74 -138 150 -153 170 -41 53 -65 109 -55 126 31 59 109 298 109 336 l0 25 -95 0 c-68 0 -97 -4 -100 -12z"></path><path id="paga8x8t4" d="M12368 10802 c-3 -208 -3 -209 -30 -250 -32 -47 -37 -106 -14 -150 17 -33 101 -157 215 -317 46 -65 103 -155 127 -199 88 -167 141 -371 151 -583 l6 -123 32 0 c43 0 52 23 60 161 5 86 3 137 -9 207 -30 173 -63 253 -225 545 -133 239 -154 295 -159 432 -2 61 1 153 8 205 6 52 14 137 17 188 l6 92 -91 0 -91 0 -3 -208z"></path><path id="pkG9toDzs" d="M12103 8463 c2 -21 17 -69 32 -108 70 -178 31 -444 -104 -712 -91 -182 -247 -365 -370 -434 -35 -19 -41 -27 -41 -56 0 -32 1 -33 41 -33 74 0 243 67 347 137 68 46 158 140 209 217 91 138 132 289 133 483 0 181 -34 313 -117 454 -45 77 -58 89 -100 89 -35 0 -35 0 -30 -37z"></path><path id="pTFthpn33" d="M7110 8436 c-125 -17 -186 -42 -246 -101 -63 -63 -79 -113 -79 -250 1 -109 12 -187 56 -370 49 -202 110 -347 252 -602 49 -88 54 -93 85 -93 31 0 32 2 32 39 0 21 -14 71 -31 112 -68 165 -127 393 -156 599 -13 95 -13 130 -4 204 17 129 60 231 124 298 49 50 127 98 162 98 11 0 15 11 15 40 l0 40 -62 -1 c-35 -1 -101 -7 -148 -13z"></path><path id="pOcml93JI" d="M8425 5258 c-25 -76 -34 -148 -34 -280 l-1 -146 -75 5 -75 6 0 -36 c0 -30 5 -39 28 -51 97 -51 164 -211 166 -401 1 -101 -1 -114 -27 -167 -37 -76 -80 -112 -121 -103 -17 3 -50 9 -73 12 l-43 5 0 -38 c0 -43 35 -96 80 -119 40 -20 185 -20 224 0 26 14 31 14 47 -1 40 -36 89 -203 89 -303 0 -128 -51 -315 -130 -476 -57 -115 -60 -120 -118 -195 -93 -118 -211 -198 -375 -256 -178 -61 -300 -84 -464 -84 -219 0 -434 54 -618 155 -121 67 -184 116 -280 216 -95 100 -164 206 -212 327 -36 91 -37 92 -71 92 l-35 0 6 -77 c16 -247 203 -516 492 -708 233 -155 368 -190 701 -182 234 5 399 36 551 102 133 58 189 87 278 147 154 103 268 216 357 353 136 212 197 530 154 796 -25 153 -85 348 -167 547 -150 365 -213 616 -190 768 17 113 16 114 -23 114 -26 0 -35 -5 -41 -22z"></path><path id="pRKidj3QS" d="M10826 4853 c-43 -11 -137 -77 -185 -128 -92 -101 -131 -215 -131 -378 0 -145 39 -240 117 -288 31 -20 51 -24 113 -23 99 0 134 16 138 66 3 34 1 38 -40 56 -94 41 -157 156 -145 266 7 69 49 186 85 239 43 62 110 127 132 127 5 0 10 16 10 35 0 34 -1 35 -37 34 -21 -1 -46 -3 -57 -6z"></path></g></g><g id="l3ujCJFyGf2exGRUVjtRJU9" fill="rgb(51,44,38)" style="transform: none;"><g><path id="pvGoyq7lw" d="M2987 13614 c-7 -7 -203 -98 -270 -125 -43 -17 -169 -75 -219 -100 -10 -5 -25 -9 -33 -9 -8 0 -15 -4 -15 -10 0 -7 2324 -10 6952 -10 3823 0 6948 3 6944 7 -3 4 -21 12 -39 19 -34 12 -269 117 -428 190 l-95 44 -6395 0 c-3518 0 -6398 -3 -6402 -6z"></path><path id="pgsN5nwpk" d="M2450 11230 c0 -5 9 -10 19 -10 10 0 52 -15 92 -34 41 -19 117 -53 169 -76 52 -23 137 -62 189 -86 l94 -44 1442 0 1442 0 13 -117 c7 -65 16 -147 20 -183 5 -36 7 -141 5 -235 -2 -155 -5 -181 -34 -290 -70 -263 -81 -304 -106 -413 -48 -209 -35 -392 49 -727 59 -234 61 -246 60 -380 0 -96 -5 -141 -17 -172 -12 -31 -13 -43 -4 -43 7 -1 76 -1 155 0 78 0 142 -1 142 -3 0 -3 -34 -21 -75 -41 -129 -61 -221 -174 -256 -316 -25 -104 -14 -368 22 -483 18 -59 -11 -13 -41 65 -61 158 -74 228 -74 398 0 146 2 161 33 265 30 99 33 123 34 240 0 72 -5 159 -11 195 -6 36 -16 99 -21 140 -11 72 -79 507 -101 638 -10 59 -35 118 -66 152 -13 16 -95 150 -135 224 -18 34 -113 179 -166 256 -207 297 -389 415 -588 380 -83 -15 -174 -47 -258 -93 -231 -125 -268 -149 -371 -237 -434 -369 -957 -1002 -1364 -1650 -40 -63 -80 -126 -90 -140 -16 -24 -16 -24 1 -11 31 25 204 -7 361 -66 123 -46 352 -172 371 -204 4 -5 12 -9 20 -9 13 0 96 65 192 151 29 26 83 64 120 84 215 119 483 293 619 403 157 126 239 220 301 343 l39 76 -4 -117 c-7 -204 41 -494 114 -677 96 -243 237 -437 456 -630 62 -55 141 -130 175 -167 62 -65 143 -169 143 -182 0 -3 9 -19 21 -36 12 -16 20 -31 18 -33 -2 -2 -53 33 -112 77 -60 44 -110 78 -113 76 -14 -15 58 -285 112 -417 30 -74 121 -245 146 -276 5 -5 35 -46 67 -90 103 -140 295 -307 436 -378 28 -13 92 -39 144 -56 77 -26 114 -32 193 -34 92 -3 99 -4 115 -27 10 -14 26 -34 36 -45 11 -11 26 -30 34 -42 19 -28 161 -148 227 -192 64 -42 150 -84 206 -100 25 -8 56 -17 70 -21 22 -6 25 -12 23 -45 -2 -24 -12 -48 -25 -63 -23 -24 -24 -24 -128 -16 -249 21 -316 8 -393 -75 -63 -67 -107 -163 -157 -341 -43 -155 -54 -187 -85 -250 -75 -152 -97 -259 -111 -550 -5 -113 -11 -146 -35 -213 -29 -77 -29 -82 -29 -285 0 -114 -5 -262 -12 -329 -27 -277 40 -498 228 -751 73 -98 242 -265 320 -316 32 -21 70 -47 84 -56 70 -47 240 -115 364 -144 252 -61 538 -43 816 51 94 32 250 109 338 168 118 78 275 229 342 330 18 28 41 62 51 76 60 90 115 232 149 384 22 103 27 336 9 458 -25 174 -133 560 -199 712 -14 33 -70 185 -96 260 -55 158 -83 401 -66 560 14 124 26 171 54 206 l20 24 -8 -25 c-4 -14 -9 -78 -11 -144 -4 -95 0 -143 18 -242 13 -68 26 -124 30 -124 7 0 15 17 67 135 22 50 52 116 66 148 l27 57 185 91 c204 99 359 185 416 230 21 16 47 33 60 38 18 6 2 14 -89 44 -176 57 -324 120 -311 133 2 2 43 -10 92 -27 168 -57 306 -82 466 -83 189 -1 285 26 376 107 21 17 38 31 38 29 3 -10 36 12 36 24 0 8 6 14 14 14 7 0 18 6 24 13 8 9 -9 12 -81 13 -96 2 -223 28 -302 63 -63 28 -177 104 -231 153 -72 66 -155 182 -216 303 -124 243 -189 493 -293 1119 -52 315 -40 281 -202 566 -55 96 -104 186 -108 200 -4 14 -25 68 -47 120 -195 466 -241 617 -283 935 -30 225 -15 396 46 534 10 24 19 47 19 52 0 11 120 258 157 324 80 140 220 358 322 497 l56 76 78 4 c42 1 77 1 77 -1 0 -2 -74 -114 -163 -250 -280 -420 -397 -642 -451 -851 -21 -80 -39 -255 -33 -314 5 -51 38 -159 83 -272 23 -60 80 -272 124 -464 32 -139 79 -257 206 -515 126 -258 153 -319 182 -420 19 -66 44 -199 57 -310 35 -290 117 -722 154 -810 5 -11 14 -36 21 -55 59 -168 170 -316 305 -406 177 -117 415 -194 600 -194 138 0 364 41 469 85 21 9 40 14 42 12 5 -5 -177 -127 -225 -151 -54 -28 -123 -46 -178 -46 -29 0 -53 -3 -53 -7 0 -5 19 -20 43 -35 78 -51 145 -125 186 -205 48 -95 73 -310 51 -432 -6 -35 -9 -65 -7 -68 9 -8 90 175 122 277 10 30 24 64 32 75 12 18 13 14 8 -35 -3 -30 -10 -73 -15 -95 -5 -22 -14 -71 -21 -110 -18 -111 -38 -171 -101 -308 -56 -121 -209 -387 -311 -541 -154 -230 -256 -533 -257 -756 0 -84 32 -281 50 -305 4 -5 15 -33 24 -60 17 -53 153 -308 183 -346 10 -12 34 -41 54 -65 171 -201 523 -341 929 -370 52 -3 97 -8 100 -10 9 -5 257 24 360 42 118 20 301 83 404 137 250 133 397 367 445 712 6 46 11 228 12 425 0 282 -2 353 -15 387 -16 45 -76 144 -108 180 -19 20 -19 29 -10 160 20 308 -16 441 -180 663 -47 63 -114 169 -151 235 -105 192 -112 203 -154 221 -46 20 -147 21 -256 4 -43 -7 -81 -10 -85 -6 -16 16 77 160 168 261 88 98 86 97 218 101 354 9 580 62 755 178 55 36 197 180 197 199 0 5 8 21 18 35 25 36 88 190 160 392 11 30 32 87 46 125 l27 70 -57 -63 c-103 -115 -418 -376 -514 -427 -8 -4 28 37 81 91 121 124 125 129 219 244 42 52 126 147 186 210 305 323 401 486 411 700 11 208 -73 396 -292 656 l-40 47 0 156 c1 86 9 241 18 346 31 349 25 413 -78 768 -35 119 -59 242 -59 302 0 17 14 111 30 210 29 171 30 188 23 350 -4 94 -11 187 -15 208 l-7 37 1355 0 1354 0 120 54 c65 30 193 88 284 130 l165 76 -6952 0 c-4629 0 -6953 -3 -6953 -10z m4281 -290 c37 -190 72 -280 146 -374 52 -67 149 -132 221 -147 76 -16 83 -25 25 -34 -26 -3 -81 -22 -121 -41 -154 -74 -258 -224 -290 -419 -14 -87 -14 -104 0 -184 29 -162 99 -271 197 -306 74 -26 128 -18 222 31 63 33 66 30 17 -13 -41 -37 -88 -80 -228 -208 -98 -91 -291 -258 -364 -315 -18 -14 -19 -13 -12 15 38 155 44 300 25 565 -7 101 -7 178 1 260 13 137 22 179 70 330 21 63 45 148 55 188 l18 72 -31 68 c-55 120 -99 316 -101 460 l-2 93 73 -3 72 -3 7 -35z m3527 -22 c-23 -74 -75 -216 -89 -240 -36 -67 9 -142 230 -378 64 -69 132 -145 151 -170 19 -25 38 -47 41 -50 18 -13 90 -179 100 -231 15 -76 7 -239 -16 -304 -28 -84 -85 -215 -142 -325 -59 -116 -67 -128 -201 -325 -62 -92 -91 -143 -87 -154 17 -43 39 -228 51 -421 3 -52 9 -137 15 -189 5 -52 7 -96 5 -98 -12 -13 -37 76 -50 182 -36 282 -149 582 -332 887 -75 124 -211 314 -291 405 -46 53 -55 71 -64 120 -5 32 -15 86 -22 120 l-14 62 35 33 c122 117 318 478 469 863 8 22 23 60 33 85 16 38 30 76 65 178 3 8 26 12 68 12 l64 0 -19 -62z m2259 5 c-3 -32 -11 -101 -17 -153 -6 -52 -11 -149 -12 -215 -1 -174 20 -237 167 -500 153 -273 191 -365 220 -532 17 -97 12 -249 -10 -292 -11 -22 -13 -16 -14 52 -4 222 -61 454 -155 633 -24 44 -81 134 -127 199 -132 184 -219 317 -225 341 -4 14 4 37 23 65 l28 42 3 209 3 208 61 0 60 0 -5 -57z m-320 -2531 c83 -140 123 -281 123 -435 -1 -222 -87 -433 -239 -582 -96 -94 -195 -153 -335 -200 -98 -33 -112 -31 -51 7 209 130 404 426 473 718 6 25 16 66 21 92 6 26 11 98 11 160 0 117 -14 194 -50 274 -28 65 0 44 47 -34z m-4907 18 c0 -5 -7 -10 -15 -10 -35 0 -113 -48 -162 -98 -82 -84 -133 -243 -133 -409 0 -181 81 -538 169 -752 42 -100 39 -110 -9 -29 -138 237 -220 430 -268 633 -58 242 -70 364 -42 460 19 68 94 143 170 170 86 30 290 55 290 35z m1163 -3269 c-13 -169 51 -421 196 -773 82 -199 142 -394 167 -547 39 -238 -23 -531 -154 -736 -89 -137 -203 -250 -357 -353 -89 -60 -145 -89 -278 -147 -142 -62 -317 -96 -520 -102 -298 -9 -445 31 -672 182 -232 154 -398 356 -466 567 -19 61 -37 168 -26 158 3 -3 21 -45 41 -94 49 -121 113 -221 207 -320 98 -104 162 -153 284 -221 190 -105 399 -155 645 -156 186 -1 310 20 501 87 160 56 279 137 371 254 58 75 61 80 118 195 114 234 155 464 115 657 -19 92 -62 178 -97 198 -24 13 -30 12 -71 -8 -52 -26 -134 -29 -177 -7 -29 15 -87 81 -79 90 3 2 25 -3 49 -11 81 -28 145 10 194 116 18 39 21 63 20 185 -1 103 -5 156 -19 200 -35 118 -87 200 -148 232 -38 19 -28 27 24 18 29 -5 55 -20 86 -48 40 -37 44 -39 39 -16 -21 100 -26 143 -26 239 0 110 19 240 34 240 3 0 3 -35 -1 -79z m2407 -330 c0 -5 -9 -12 -20 -16 -10 -3 -42 -36 -69 -73 -98 -130 -136 -306 -95 -441 19 -64 73 -127 132 -153 52 -24 45 -42 -24 -56 -79 -17 -151 14 -193 82 -93 149 -56 391 81 541 66 73 188 148 188 116z m-374 -168 c-63 -85 -162 -271 -190 -355 -72 -220 -96 -491 -62 -713 41 -266 248 -526 519 -650 125 -56 286 -104 454 -135 106 -19 378 -13 485 10 269 58 494 199 636 399 47 66 39 25 -9 -50 -130 -200 -355 -355 -597 -410 -78 -17 -266 -39 -342 -39 -169 0 -409 41 -563 97 -315 113 -560 361 -657 666 -49 155 -56 385 -16 558 44 192 128 378 231 514 75 99 158 193 172 195 2 0 -26 -39 -61 -87z"></path><path id="p120wIyzuh" d="M13174 10073 c3 -10 13 -58 22 -108 9 -49 20 -112 25 -140 12 -62 24 -147 49 -345 28 -224 28 -221 36 -402 l7 -165 213 -106 c117 -58 234 -112 261 -120 140 -42 356 -140 548 -247 123 -69 174 -100 342 -211 l73 -48 82 38 c46 21 148 62 228 91 168 61 212 81 190 88 -30 9 -130 101 -395 362 -611 601 -1079 977 -1603 1287 -40 24 -75 43 -78 43 -3 0 -3 -8 0 -17z"></path><path id="p6biGmoDQ" d="M2355 8304 c-142 -17 -227 -36 -333 -75 -270 -98 -532 -381 -645 -694 -105 -294 -101 -567 15 -909 22 -66 98 -217 128 -256 11 -14 47 -60 80 -102 185 -238 513 -405 845 -431 49 -4 49 -4 20 9 -16 7 -41 13 -55 14 -65 2 -220 57 -329 118 -140 78 -186 139 -186 247 1 142 118 181 278 92 34 -19 91 -44 127 -55 110 -35 290 -55 290 -32 0 6 -14 10 -31 10 -92 0 -283 85 -391 174 -144 119 -230 280 -259 485 -12 85 -11 100 9 198 47 233 168 397 372 502 216 112 461 102 680 -28 56 -34 155 -126 212 -199 30 -37 75 -134 99 -212 34 -107 34 -312 1 -415 -42 -130 -103 -237 -181 -318 l-36 -38 45 16 c25 9 61 26 80 39 114 75 185 87 268 44 81 -41 99 -111 49 -187 -25 -38 -110 -135 -162 -185 l-30 -29 30 18 c48 29 182 163 245 245 95 124 168 285 217 475 25 99 25 387 0 499 -55 245 -178 467 -348 632 -132 127 -219 185 -380 255 -227 98 -448 127 -724 93z"></path><path id="pSTingftT" d="M15475 8304 c-109 -13 -172 -25 -230 -43 -55 -17 -240 -101 -267 -121 -15 -11 -30 -20 -34 -20 -17 0 -161 -120 -228 -190 -135 -142 -218 -278 -284 -470 -56 -162 -76 -383 -52 -562 27 -190 154 -477 262 -589 7 -8 22 -26 33 -40 23 -30 177 -169 187 -169 3 0 -12 19 -34 43 -138 146 -176 211 -156 268 15 48 27 60 77 82 63 28 126 25 192 -8 29 -15 61 -34 70 -42 9 -8 41 -23 70 -34 l54 -21 -36 39 c-38 40 -106 136 -132 188 -8 17 -28 71 -43 120 -26 81 -29 103 -28 225 1 117 4 145 27 211 44 132 97 218 183 303 215 209 535 260 799 128 203 -101 330 -271 377 -504 19 -93 19 -112 8 -196 -14 -113 -40 -196 -86 -280 -72 -128 -185 -237 -318 -304 -74 -38 -201 -78 -243 -78 -18 0 -33 -4 -33 -10 0 -14 70 -12 170 4 105 17 167 38 249 84 143 79 251 57 276 -56 26 -119 -49 -218 -234 -311 -81 -41 -234 -91 -281 -91 -14 -1 -38 -7 -55 -14 -28 -12 -26 -13 30 -9 306 22 625 181 822 412 157 185 255 408 298 686 56 355 -64 745 -314 1016 -145 158 -274 241 -456 297 -126 38 -184 50 -314 62 -127 12 -186 11 -326 -6z"></path><path id="pVfqf1Zwv" d="M15514 7560 c-232 -33 -407 -205 -459 -449 -16 -78 -20 -141 -7 -141 4 0 13 30 20 66 15 78 33 117 76 162 41 45 77 62 125 62 53 0 82 -14 109 -54 25 -37 27 -54 7 -80 -35 -47 -40 -203 -6 -214 8 -3 11 0 7 6 -12 19 14 106 46 154 80 118 265 123 342 9 35 -52 49 -105 41 -154 -14 -82 -64 -149 -132 -178 -18 -8 -33 -17 -33 -21 0 -24 122 16 166 54 45 40 81 102 90 156 8 53 23 68 76 83 114 30 217 -56 219 -182 0 -47 2 -51 11 -29 16 39 3 215 -22 295 -84 269 -294 442 -555 458 -38 2 -93 1 -121 -3z"></path><path id="p95apvM1w" d="M2408 7532 c-109 -41 -182 -88 -249 -162 -114 -125 -179 -297 -179 -473 0 -56 4 -86 10 -82 6 3 10 22 10 42 0 45 39 114 82 144 38 28 116 32 166 9 33 -15 36 -20 47 -80 17 -87 92 -169 177 -195 88 -26 108 -15 36 20 -49 23 -102 92 -119 154 -23 82 23 186 103 231 76 43 204 22 260 -43 30 -34 58 -102 60 -145 2 -55 20 -49 30 9 9 50 -5 136 -27 165 -20 26 -18 43 7 80 50 74 150 74 226 1 43 -41 66 -87 82 -162 7 -33 17 -64 22 -69 13 -16 9 56 -7 136 -42 197 -166 350 -343 419 -47 19 -81 23 -187 26 -122 3 -135 1 -207 -25z"></path><path id="pUfbrwGQ6" d="M10323 5708 c-1 -182 -66 -336 -212 -506 -49 -57 -205 -197 -336 -302 -274 -219 -381 -335 -512 -555 -52 -87 -74 -138 -115 -268 -31 -97 -32 -110 -32 -262 0 -138 3 -172 23 -245 45 -162 126 -294 259 -422 134 -129 313 -222 502 -262 124 -26 318 -9 351 30 8 9 -7 29 -56 79 -279 282 -400 641 -331 976 30 142 92 293 186 449 15 25 60 101 100 170 40 69 83 141 95 160 102 159 149 273 180 439 27 137 16 333 -25 471 -12 43 -61 140 -70 140 -3 0 -7 -42 -7 -92z m-489 -920 c-38 -40 -83 -91 -100 -113 -100 -133 -174 -302 -213 -493 -92 -440 7 -856 251 -1048 93 -73 231 -134 306 -134 17 0 32 -4 32 -10 0 -18 -137 -11 -218 10 -249 66 -450 236 -536 454 -15 37 -34 118 -43 180 -15 98 -15 126 -4 217 44 345 187 637 428 871 55 54 153 136 163 137 2 1 -27 -32 -66 -71z"></path></g></g></svg>